<?xml version="1.0" standalone="no"?>
<!DOCTYPE svg PUBLIC "-//W3C//DTD SVG 20010904//EN"
 "http://www.w3.org/TR/2001/REC-SVG-20010904/DTD/svg10.dtd">
<svg version="1.0" xmlns="http://www.w3.org/2000/svg"
 width="260.000000pt" height="260.000000pt" viewBox="0 0 260.000000 260.000000"
 preserveAspectRatio="xMidYMid meet">
<metadata>
Created by potrace 1.11, written by Peter Selinger 2001-2013
</metadata>
<g transform="translate(0.000000,260.000000) scale(0.100000,-0.100000)"
fill="#000000" stroke="none">
<path d="M369 2572 c-175 -46 -316 -198 -348 -376 -15 -82 -15 -1730 0 -1812
26 -144 129 -279 264 -345 l70 -34 955 0 955 0 68 32 c92 44 186 138 230 230
l32 68 0 956 0 955 -37 75 c-65 132 -196 232 -337 259 -34 6 -370 10 -920 9
-785 0 -872 -2 -932 -17z m1132 -461 c329 -84 573 -337 635 -658 55 -289 -38
-571 -259 -779 -69 -66 -107 -92 -189 -132 -149 -74 -205 -86 -378 -87 -121 0
-158 4 -223 23 -259 75 -462 258 -561 506 -46 114 -58 195 -53 341 3 113 8
143 36 225 95 282 318 489 606 561 100 25 288 25 386 0z"/>
<path d="M1155 1994 c-38 -8 -113 -36 -165 -61 -81 -39 -108 -59 -185 -137
-100 -100 -146 -176 -187 -306 -19 -63 -23 -95 -22 -205 0 -113 4 -141 27
-210 38 -115 91 -199 182 -290 92 -92 177 -145 289 -181 92 -29 233 -40 316
-26 l55 10 -90 1 c-252 3 -463 138 -571 364 -114 242 -62 523 133 714 250 245
635 242 884 -7 123 -122 181 -264 182 -438 0 -48 -3 -103 -6 -122 -5 -30 -4
-28 9 10 9 25 18 91 21 146 22 412 -311 758 -724 753 -43 0 -109 -7 -148 -15z"/>
<path d="M1285 1721 c-24 -6 -13 -9 50 -12 112 -8 181 -37 261 -111 260 -243
133 -664 -219 -729 -222 -41 -445 120 -487 350 -6 35 -9 82 -6 105 5 38 5 39
-5 11 -6 -16 -11 -70 -11 -120 -1 -203 101 -364 287 -456 83 -41 90 -43 198
-47 100 -4 120 -2 183 20 139 49 236 134 299 264 160 328 -70 713 -435 729
-47 2 -98 0 -115 -4z"/>
<path d="M1227 1586 c-99 -27 -184 -113 -213 -213 -42 -143 28 -298 165 -365
66 -33 196 -33 262 0 62 30 113 82 146 145 36 70 39 188 7 258 -65 140 -223
216 -367 175z"/>
</g>
</svg>
